<svg xmlns="http://www.w3.org/2000/svg" data-name="Layer 3" viewBox="0 0 100 100" x="0px" y="0px"><title>Cinnamon</title><path d="M70.52,34.44a4.36,4.36,0,0,0-2.09-1.16,4.3,4.3,0,0,0-7.22-2.08l-1.14,1.15,1.45-5.43A4.3,4.3,0,0,0,56.1,21.7a4.3,4.3,0,0,0-7.29,1.81L41.45,51,27,65.39a4.27,4.27,0,0,0,0,6.06,4.21,4.21,0,0,0,2.08,1.16,4.29,4.29,0,0,0,6,2.93,4.28,4.28,0,0,0,5.53,3.76A4.3,4.3,0,0,0,48,77.49l5.3-19.72L70.51,40.51A4.3,4.3,0,0,0,70.52,34.44Zm-6.84-.06a.51.51,0,0,1,.71,0l1.12,1.12-8.6,8.58,1.08-4ZM30.19,68.57a.5.5,0,0,1,0-.71l9.19-9.19-1.08,4-7,7Zm3.64,3a.49.49,0,0,1-.7,0L32,70.39l5.77-5.76-1.08,4Zm5.77,3.73a.5.5,0,0,1-.36-.61L52.54,25a.52.52,0,0,1,.61-.36l1.53.42L41.12,75.65Zm4.62.72a.5.5,0,0,1-.6.36l-1.53-.42L55.64,25.34l1.53.41a.51.51,0,0,1,.36.61ZM67.33,38l-12,12,1.08-4,9.82-9.81,1.11,1.12A.48.48,0,0,1,67.33,38Z"/></svg>
