<svg xmlns:dc="http://purl.org/dc/elements/1.1/" xmlns:cc="http://creativecommons.org/ns#" xmlns:rdf="http://www.w3.org/1999/02/22-rdf-syntax-ns#" xmlns:svg="http://www.w3.org/2000/svg" xmlns="http://www.w3.org/2000/svg" xmlns:sodipodi="http://sodipodi.sourceforge.net/DTD/sodipodi-0.dtd" xmlns:inkscape="http://www.inkscape.org/namespaces/inkscape" version="1.1" x="0px" y="0px" viewBox="0 0 100 100"><g transform="translate(0,-952.36218)"><path style="text-indent:0;text-transform:none;direction:ltr;block-progression:tb;baseline-shift:baseline;color:#000000;enable-background:accumulate;" d="m 50,957.36215 c 24.829,0 45,20.17101 45,45.00005 0,24.829 -20.171,45 -45,45 -24.829,0 -45.0000001,-20.171 -45.0000001,-45 C 4.9999999,977.53316 25.171,957.36215 50,957.36215 z m 0,4 c -22.6672,0 -41.0000001,18.33279 -41.0000001,41.00005 0,7.4577 1.9983001,14.4479 5.4688001,20.4687 3.4443,-2.1447 7.6865,-3.4372 11.1562,-2.375 4.1494,1.3664 5.8833,4.5725 7.125,6.6875 0.6208,1.0575 1.1631,1.8403 1.75,2.3125 0.5813,0.4678 1.2114,0.7807 2.5938,0.7813 1.3357,0.1035 2.3415,-0.5287 3.0312,-1.25 0.7017,-0.7471 1.2901,-1.9467 1.9062,-3.3125 0.6164,-1.3658 1.2578,-2.8871 2.5,-4.2188 1.2423,-1.3316 3.2329,-2.2478 5.5938,-2.0937 2.9166,0.4511 5.0498,1.9477 6.25,3.75 1.1353,1.7702 1.4952,3.672 1.8125,5.2812 0.3173,1.6093 0.6117,2.9245 1.0937,3.6563 0.4703,0.7137 0.9979,1.1408 2.75,1.2812 1.4498,-0.065 1.9498,-0.4343 2.5,-1.2187 0.5669,-0.8079 1.0096,-2.2025 1.5,-3.8125 0.4905,-1.61 1.0142,-3.4643 2.3126,-5.0625 2.0061,-2.202 4.1793,-2.718 6.3124,-2.7813 3.9098,0.051 7.3635,2.1882 9,5.3125 C 88.2771,1019.1321 91,1011.0734 91,1002.3622 91,979.69494 72.6672,961.36215 50,961.36215 z m 13.7188,7 c 0.5118,0 1.0156,0.172 1.4062,0.5625 0.781,0.7811 0.781,2.06275 0,2.84375 l -4.25,4.25 c -0.781,0.781 -2.0314,0.781 -2.8125,0 -0.7811,-0.7811 -0.7811,-2.06265 0,-2.84375 l 4.2187,-4.25 c 0.3907,-0.3905 0.9256,-0.5625 1.4376,-0.5625 z m -31.5938,4.25 c 0.6404,0.045 1.2485,0.4021 1.5938,1 l 3,5.1875 c 0.5522,0.9566 0.2378,2.1977 -0.7188,2.75 -0.9567,0.5523 -2.1663,0.2066 -2.7188,-0.75 l -3,-5.1875 c -0.5522,-0.9567 -0.2379,-2.1977 0.7188,-2.75 0.3587,-0.2071 0.7407,-0.2771 1.125,-0.25 z m 23.5312,7.03125 c 0.258,0.032 0.511,0.14325 0.75,0.28125 l 5.1876,3 c 0.9564,0.5523 1.3022,1.76215 0.75,2.71875 -0.5523,0.9566 -1.7936,1.27105 -2.75,0.71875 l -5.1876,-3 c -0.9564,-0.5523 -1.3022,-1.76215 -0.75,-2.71875 0.4143,-0.7175 1.2266,-1.096 2,-1 z m 21.2188,4.84375 c 0.5118,0 1.0158,0.20325 1.4062,0.59375 l 4.25,4.25 c 0.7812,0.7811 0.7812,2.0315 0,2.8125 -0.7811,0.7811 -2.0315,0.7811 -2.8124,0 l -4.25,-4.25 c -0.781,-0.7811 -0.781,-2.0315 0,-2.8125 0.3904,-0.3905 0.8944,-0.59375 1.4062,-0.59375 z m -40.0213,1.625 c 0.2578,0.032 0.5109,0.14325 0.75,0.28125 0.9566,0.5523 1.271,1.76205 0.7188,2.71875 l -3,5.1875 c -0.5523,0.9566 -1.7622,1.3023 -2.7188,0.75 -0.9566,-0.5523 -1.3023,-1.7934 -0.75,-2.75 l 3,-5.1875 c 0.4142,-0.7175 1.2265,-1.096 2,-1 z M 19,987.1434 c 0.6404,0.045 1.2485,0.4021 1.5938,1 l 3,5.1875 c 0.5522,0.9566 0.2378,2.1977 -0.7188,2.75 -0.9566,0.5523 -2.1977,0.2066 -2.75,-0.75 l -3,-5.1875 c -0.5523,-0.9567 -0.2066,-2.16645 0.75,-2.71875 0.3587,-0.2071 0.7407,-0.30845 1.125,-0.28125 z m 31,1.21875 c 7.7083,0 14,6.29171 14,14.00005 0,7.7083 -6.2917,14 -14,14 -7.7082,0 -14,-6.2917 -14,-14 0,-7.70836 6.2918,-14.00005 14,-14.00005 z m 0,4 c -5.5464,0 -10,4.45351 -10,10.00005 0,5.5465 4.4536,10 10,10 5.5465,0 10,-4.4535 10,-10 0,-5.54656 -4.4535,-10.00005 -10,-10.00005 z m 22.75,2.59375 c 0.5118,0 1.0158,0.172 1.4062,0.5625 0.7812,0.7811 0.7812,2.06275 0,2.84375 l -4.25,4.25005 c -0.7811,0.7811 -2.0315,0.7811 -2.8124,0 -0.7812,-0.7812 -0.7812,-2.0628 0,-2.8438 l 4.2187,-4.25 c 0.3906,-0.3905 0.9256,-0.5625 1.4375,-0.5625 z m -50.1562,9.625 c 2.0477,0.4301 4.1379,1.0711 6.1874,1.625 1.0672,0.2859 1.7233,1.3705 1.4376,2.4375 -0.2861,1.067 -1.4018,1.6922 -2.4688,1.4063 l -5.7812,-1.5313 c -1.0672,-0.2859 -1.6922,-1.4017 -1.4063,-2.4687 0.2502,-0.9335 1.1026,-1.5246 2.0313,-1.4688 z M 76,1006.9559 c 0.6404,0.045 1.2485,0.4021 1.5938,1 l 3,5.1875 c 0.5522,0.9566 0.2378,2.1665 -0.7188,2.7188 -0.9566,0.5523 -2.1977,0.2378 -2.75,-0.7188 l -3,-5.1875 c -0.5523,-0.9566 -0.2066,-2.1977 0.75,-2.75 0.3587,-0.2071 0.7407,-0.2772 1.125,-0.25 z m -26.2812,16.4063 c -1.2353,-0.049 -1.7296,0.2211 -2.2813,0.8125 -0.5817,0.6235 -1.1251,1.7716 -1.75,3.1562 -0.6249,1.3847 -1.3476,3.0131 -2.6563,4.4063 -2.0009,1.9935 -3.9146,2.415 -5.875,2.5 -2.1271,0.01 -3.8874,-0.6354 -5.1562,-1.6563 -1.2688,-1.0208 -2.024,-2.276 -2.6875,-3.4062 -1.3199,-2.2483 -2.1482,-3.9824 -4.9063,-4.9063 -1.385,-0.4405 -3.4208,-0.6169 -7.7812,1.9375 7.433,10.3894 19.6077,17.1563 33.375,17.1563 12.209,0 23.1496,-5.3315 30.6562,-13.7813 -0.1208,-2.8604 -2.552,-5.0529 -6,-5.125 -1.2627,0.09 -2.5073,0.4917 -3.1874,1.3125 -0.6441,0.793 -1.1488,2.1243 -1.625,3.6875 -0.4763,1.5633 -0.9329,3.3588 -2.0626,4.9688 -1.1293,1.61 -3.1439,2.8597 -5.7187,2.9375 -2.5573,-0.047 -4.9504,-1.388 -6.125,-3.0938 -1.1051,-1.6771 -1.3735,-3.5011 -1.6875,-5.0937 -0.314,-1.5926 -0.657,-2.9817 -1.25,-3.9063 -0.5842,-0.9108 -1.3274,-1.5353 -3.2812,-1.9062 z" fill="#000000" fill-opacity="1" stroke="none" marker="none" visibility="visible" display="inline" overflow="visible"/></g></svg>
